<?xml version="1.0" encoding="UTF-8"?>
<svg xmlns="http://www.w3.org/2000/svg" xmlns:xlink="http://www.w3.org/1999/xlink" viewBox="0 0 64 64" width="64px" height="64px">
<g id="surface16776638">
<path style=" stroke:none;fill-rule:nonzero;fill:rgb(90.588236%,29.803923%,23.529412%);fill-opacity:1;" d="M 28 6 C 25.789062 6 24 7.789062 24 10 L 24 12 L 23.597656 12 L 10 14 L 10 17 L 54 17 L 54 14 L 40.402344 12 L 40 12 L 40 10 C 40 7.789062 38.210938 6 36 6 Z M 28 10 L 36 10 L 36 12 L 28 12 Z M 12 19 L 14.703125 52.324219 C 14.871094 54.398438 16.605469 56 18.691406 56 L 45.3125 56 C 47.398438 56 49.128906 54.402344 49.300781 52.324219 L 51.925781 20 Z M 20 26 C 21.105469 26 22 26.894531 22 28 L 22 51 L 19 51 L 18 28 C 18 26.894531 18.894531 26 20 26 Z M 32 26 C 33.65625 26 35 27.34375 35 29 L 35 51 L 29 51 L 29 29 C 29 27.34375 30.34375 26 32 26 Z M 44 26 C 45.105469 26 46 26.894531 46 28 L 45 51 L 42 51 L 42 28 C 42 26.894531 42.894531 26 44 26 Z M 44 26 "/>
</g>
</svg>
